<svg width="140" height="108" viewBox="0 0 140 108" fill="none" xmlns="http://www.w3.org/2000/svg">
<g id="Vector">
<path d="M85.5287 0.524768C82.5441 0.524768 80.1292 2.94218 80.1292 5.92431C80.1292 6.85313 80.3323 7.7225 80.7756 8.48785L100.997 43.518C101.928 45.1329 103.674 46.2252 105.676 46.2252C107.677 46.2252 109.416 45.1329 110.349 43.518L130.576 8.48785C131.016 7.72498 131.222 6.8556 131.222 5.92431C131.222 2.94218 128.807 0.524768 125.825 0.524768H85.5287Z" fill="white"/>
<path d="M137.053 0.5C135.423 0.5 134.1 1.82016 134.1 3.44993C134.1 5.0797 135.423 6.40234 137.053 6.40234C138.682 6.40234 140 5.0797 140 3.44993C140 1.82016 138.682 0.5 137.053 0.5ZM137.053 5.79303C135.76 5.78808 134.712 4.74285 134.709 3.44993C134.712 2.15949 135.757 1.11426 137.053 1.11178C138.343 1.11178 139.388 2.15949 139.393 3.44993C139.391 4.74285 138.345 5.78808 137.053 5.79303ZM137.459 3.80907C137.912 3.77688 138.113 3.49699 138.113 2.99914C138.113 2.60285 138.041 2.32792 137.887 2.1694C137.711 1.99602 137.612 1.96877 137.124 1.96877H136.272C136.178 1.96877 136.094 1.97373 136.094 2.11738V4.77009C136.094 4.90384 136.136 4.92861 136.272 4.92861H136.47C136.574 4.92861 136.622 4.88898 136.622 4.77009V3.82146H136.835L137.632 4.82211C137.714 4.91623 137.771 4.92861 137.88 4.92861H138.16C138.288 4.92861 138.306 4.82211 138.217 4.7156L137.456 3.80907H137.459ZM136.622 3.38306V2.41213C136.773 2.41213 137.325 2.38488 137.444 2.44433C137.545 2.49882 137.597 2.63257 137.597 2.95951C137.597 3.17748 137.568 3.23197 137.533 3.28398C137.479 3.35333 137.384 3.38553 137.184 3.38553H136.619L136.622 3.38306Z" fill="white"/>
<path d="M63.0858 50.2575C63.0858 50.2575 63.0908 50.2649 63.0933 50.2674L63.0883 50.2624V50.2575H63.0858ZM98.5868 50.9337L98.3639 50.5497L72.919 6.47169C70.7963 2.79852 66.7293 0.524768 62.2115 0.524768H41.5866C39.2856 0.524768 37.418 2.39231 37.418 4.69083C37.418 5.40664 37.5815 6.09025 37.9134 6.66488L63.0908 50.2674C64.24 52.2266 64.8989 54.5078 64.8989 56.945C64.8989 59.3822 64.2747 61.5247 63.1899 63.4442L41.3018 101.362C40.9699 101.932 40.8064 102.618 40.8064 103.334C40.8064 105.635 42.6715 107.5 44.975 107.5H66.1398C70.6527 107.5 74.7197 105.229 76.8424 101.556L98.7205 63.6597C99.7905 61.7996 100.288 59.672 100.288 57.4106C100.288 55.1493 99.684 52.8309 98.5892 50.9312L98.5868 50.9337Z" fill="white"/>
<path d="M20.9791 56.1772C19.2477 56.1772 17.7071 56.7518 16.652 57.267V51.3399C16.652 50.7306 16.3969 49.9603 15.4012 49.9603H13.9621C13.0333 49.9603 12.5528 50.2476 12.5528 51.3399V70.7237C12.5528 71.4915 12.8079 72.0018 13.707 72.0018H15.4012C16.3969 72.0018 16.652 71.4568 16.652 70.5627V63.2213C16.652 60.9228 17.1251 60.1401 19.3889 60.1401C21.5314 60.1401 21.8113 60.955 21.8113 62.9068V63.5062H21.8039C21.8088 63.8158 21.8113 64.1675 21.8113 64.5613V70.5652C21.8113 71.5262 22.1308 72.0042 22.963 72.0042H24.6622C25.6554 72.0042 25.9105 71.4593 25.9105 70.5652V60.7321C25.9105 58.6466 24.9173 56.1821 20.9791 56.1821V56.1772ZM40.4324 68.5441C40.046 68.5441 39.6646 68.7026 39.3128 68.7645C38.124 69.0221 36.8112 69.2797 35.4044 69.2797C34.634 69.2797 33.9306 69.1187 33.4798 68.9255C32.4866 68.4772 32.395 67.2289 32.4247 65.6239H40.2392C41.3637 65.6239 41.5866 65.4332 41.5866 63.6721C41.5866 61.6188 41.3934 59.6026 40.4002 58.1611C39.4714 56.8484 37.8688 56.1722 35.2087 56.1722C32.39 56.1722 30.6265 56.9078 29.6679 58.2874C28.6722 59.6968 28.3849 61.5866 28.3849 64.4028C28.3849 67.5781 28.8332 69.6611 30.1806 70.9095C31.2383 71.9027 32.9696 72.4104 35.3697 72.4104C36.7468 72.4104 38.6391 72.2841 40.2045 71.9943C41.2002 71.8358 41.3612 71.3256 41.3612 70.585C41.3612 70.2333 41.3612 69.8494 41.2943 69.5299C41.1977 69.1138 40.9104 68.5391 40.4299 68.5391L40.4324 68.5441ZM32.4247 62.5179C32.4247 60.1822 32.9052 59.3822 35.2112 59.3822C37.3883 59.3822 37.6756 60.2144 37.6756 62.1984V62.8077H32.4247V62.5179ZM8.90929 56.6552H5.76367V54.0594C5.76367 53.4501 5.47388 52.6476 4.48313 52.6476H3.04159C2.11029 52.6476 1.66446 52.9696 1.66446 54.0594V56.6552H0.861951C0.31704 56.6552 0 56.9103 0 57.7128V59.0924C0 59.6051 0.15852 60.0188 0.770306 60.0188H1.66693V67.323C1.66693 71.1349 2.40008 72.3857 5.80082 72.3857C6.85845 72.3857 7.56188 72.3213 8.5873 72.2247C9.6152 72.1306 9.93472 71.8086 9.93472 70.6222V69.4679C9.93472 69.1187 9.77372 68.5738 9.06781 68.5738C8.36191 68.5738 7.33896 69.0543 6.43986 69.0543C6.21694 69.0543 6.05842 68.9602 5.96182 68.7967C5.83302 68.5416 5.76615 67.9645 5.76615 66.4586V60.0163H9.22633C9.80344 60.0163 9.99664 59.8875 9.99664 58.7977V57.6781C9.99664 56.7493 9.6152 56.6527 8.91177 56.6527L8.90929 56.6552Z" fill="white"/>
<path d="M89.4224 102.893L87.0991 101.553L84.6445 97.3969C84.5702 97.2706 84.4389 97.0774 84.3101 97.0031C84.1045 96.8842 83.8767 96.9263 83.7181 97.2087L83.4407 97.6818C83.2525 98.0062 83.2995 98.1796 83.4333 98.3951L85.229 101.422L81.7441 101.352C81.4865 101.347 81.3032 101.387 81.1174 101.712L80.7806 102.291C80.679 102.465 80.6121 102.759 80.8821 102.913C80.9787 102.97 81.1125 102.99 81.2561 102.987L86.3486 103.047L88.5852 104.337C88.9617 104.555 89.1524 104.451 89.3604 104.097L89.6255 103.629C89.8088 103.317 89.7419 103.076 89.4174 102.891L89.4224 102.893ZM95.3322 92.6017L88.7288 89.523C88.3226 89.3323 88.1418 89.5453 87.9932 89.8029L87.6489 90.3973C87.478 90.6995 87.4879 90.9051 87.6663 91.1404C88.4316 92.1138 89.8657 93.7659 90.9407 95.0464C89.2936 94.7591 87.1461 94.3405 85.9176 94.1671C85.6253 94.125 85.4396 94.2241 85.2637 94.5238L84.9244 95.1182C84.7733 95.3783 84.6792 95.6408 85.0482 95.8959L91.015 100.077C91.3964 100.339 91.6243 100.171 91.8175 99.8366L92.08 99.3809C92.2658 99.0614 92.1742 98.8484 91.8819 98.6502L87.6489 95.8291C87.9338 95.8786 88.3202 95.9851 88.6372 96.0371C89.8732 96.265 91.1859 96.5152 92.0231 96.6365C92.355 96.6861 92.5705 96.6514 92.776 96.2947L92.942 96.0124C93.1476 95.6582 93.0708 95.4427 92.8627 95.1777C92.3376 94.5139 91.4534 93.5281 90.641 92.5671C90.4305 92.3318 90.1555 92.0296 89.9698 91.8067L94.5272 94.0656C94.8442 94.2166 95.077 94.1919 95.2603 93.8699L95.5204 93.4166C95.7161 93.0798 95.7458 92.7949 95.3272 92.5993L95.3322 92.6017ZM98.8592 86.9768L98.505 86.7712C98.1112 86.5458 97.9428 86.5359 97.7446 86.8777C97.5143 87.279 97.4548 87.5069 97.1254 88.079C96.9322 88.4134 96.7366 88.7007 96.5929 88.879C95.8771 89.7187 94.8913 89.2332 93.6677 88.5248C92.4268 87.8115 91.5872 87.2963 91.6714 86.4963C91.706 86.157 92.0008 85.5799 92.2014 85.2331C92.5308 84.6609 92.6943 84.4975 92.9271 84.0938C93.1278 83.7519 93.0361 83.6108 92.6472 83.3878L92.2931 83.1823C92.0528 83.0436 91.8745 83.1005 91.5896 83.5241C91.2899 83.9699 91.1141 84.2275 90.8243 84.7253C89.6057 86.8307 89.6205 88.1781 92.7959 90.0109C94.6634 91.0909 96.152 91.5045 97.388 90.2141C97.71 89.8822 98.0196 89.414 98.2524 89.0128C98.5397 88.5149 98.671 88.2375 98.9088 87.7521C99.1342 87.2914 99.0896 87.1081 98.8568 86.9718L98.8592 86.9768ZM102.773 80.1209C102.718 80.0887 102.651 80.0788 102.584 80.0689L94.9408 78.766C94.5495 78.6967 94.329 78.7289 94.0987 79.1301L93.8436 79.5735C93.6132 79.9698 93.6925 80.1754 93.9625 80.4899L98.8617 86.2684C98.9707 86.4046 99.0821 86.5136 99.1441 86.5483C99.31 86.6424 99.4363 86.6449 99.6494 86.2783L99.9342 85.778C100.147 85.4139 100.036 85.2331 99.798 84.9681L98.775 83.799C99.0103 83.42 99.2382 83.0188 99.5007 82.5655C99.7781 82.09 99.9738 81.7457 100.234 81.2751L101.856 81.5773C102.119 81.6268 102.337 81.6219 102.53 81.2875L102.872 80.693C102.973 80.5197 103.04 80.272 102.773 80.1184V80.1209ZM98.3688 81.9141C98.188 82.2262 98.0295 82.5234 97.8833 82.7736L95.8374 80.4354L98.884 81.0423C98.7007 81.3543 98.562 81.5748 98.3663 81.9141H98.3688Z" fill="white"/>
</g>
</svg>
